<mxfile host="Electron" agent="Mozilla/5.0 (Windows NT 10.0; Win64; x64) AppleWebKit/537.36 (KHTML, like Gecko) draw.io/28.1.2 Chrome/138.0.7204.243 Electron/37.4.0 Safari/537.36" version="28.1.2">
  <diagram name="Page-1" id="Km7a4kIvoPcCH2-qx5Cr">
    <mxGraphModel dx="1752" dy="607" grid="1" gridSize="10" guides="1" tooltips="1" connect="1" arrows="1" fold="1" page="1" pageScale="1" pageWidth="827" pageHeight="1169" math="0" shadow="0">
      <root>
        <mxCell id="0" />
        <mxCell id="1" parent="0" />
        <mxCell id="cLG7nZlnw9pA9-EBMMAk-4" style="edgeStyle=orthogonalEdgeStyle;rounded=0;orthogonalLoop=1;jettySize=auto;html=1;exitX=0.5;exitY=1;exitDx=0;exitDy=0;entryX=0.5;entryY=0;entryDx=0;entryDy=0;fillColor=#d80073;strokeColor=#A50040;" edge="1" parent="1" source="cLG7nZlnw9pA9-EBMMAk-1" target="cLG7nZlnw9pA9-EBMMAk-3">
          <mxGeometry relative="1" as="geometry" />
        </mxCell>
        <mxCell id="cLG7nZlnw9pA9-EBMMAk-1" value="Start with simple Python Functions folder called imageprocessing.py" style="ellipse;whiteSpace=wrap;html=1;align=center;" vertex="1" parent="1">
          <mxGeometry x="337" y="30" width="155" height="100" as="geometry" />
        </mxCell>
        <mxCell id="cLG7nZlnw9pA9-EBMMAk-16" style="edgeStyle=orthogonalEdgeStyle;rounded=0;orthogonalLoop=1;jettySize=auto;html=1;exitX=0.5;exitY=1;exitDx=0;exitDy=0;entryX=0.5;entryY=0;entryDx=0;entryDy=0;" edge="1" parent="1" source="cLG7nZlnw9pA9-EBMMAk-3" target="cLG7nZlnw9pA9-EBMMAk-12">
          <mxGeometry relative="1" as="geometry" />
        </mxCell>
        <mxCell id="cLG7nZlnw9pA9-EBMMAk-17" style="edgeStyle=orthogonalEdgeStyle;rounded=0;orthogonalLoop=1;jettySize=auto;html=1;exitX=0;exitY=0.75;exitDx=0;exitDy=0;entryX=0.5;entryY=0;entryDx=0;entryDy=0;" edge="1" parent="1" source="cLG7nZlnw9pA9-EBMMAk-3" target="cLG7nZlnw9pA9-EBMMAk-7">
          <mxGeometry relative="1" as="geometry" />
        </mxCell>
        <mxCell id="cLG7nZlnw9pA9-EBMMAk-18" style="edgeStyle=orthogonalEdgeStyle;rounded=0;orthogonalLoop=1;jettySize=auto;html=1;exitX=0;exitY=0.5;exitDx=0;exitDy=0;entryX=0.5;entryY=0;entryDx=0;entryDy=0;" edge="1" parent="1" source="cLG7nZlnw9pA9-EBMMAk-3" target="cLG7nZlnw9pA9-EBMMAk-6">
          <mxGeometry relative="1" as="geometry" />
        </mxCell>
        <mxCell id="cLG7nZlnw9pA9-EBMMAk-19" style="edgeStyle=orthogonalEdgeStyle;rounded=0;orthogonalLoop=1;jettySize=auto;html=1;exitX=0;exitY=0.25;exitDx=0;exitDy=0;entryX=0.5;entryY=0;entryDx=0;entryDy=0;" edge="1" parent="1" source="cLG7nZlnw9pA9-EBMMAk-3" target="cLG7nZlnw9pA9-EBMMAk-5">
          <mxGeometry relative="1" as="geometry" />
        </mxCell>
        <mxCell id="cLG7nZlnw9pA9-EBMMAk-20" style="edgeStyle=orthogonalEdgeStyle;rounded=0;orthogonalLoop=1;jettySize=auto;html=1;exitX=1;exitY=0.75;exitDx=0;exitDy=0;entryX=0.5;entryY=0;entryDx=0;entryDy=0;" edge="1" parent="1" source="cLG7nZlnw9pA9-EBMMAk-3" target="cLG7nZlnw9pA9-EBMMAk-13">
          <mxGeometry relative="1" as="geometry" />
        </mxCell>
        <mxCell id="cLG7nZlnw9pA9-EBMMAk-21" style="edgeStyle=orthogonalEdgeStyle;rounded=0;orthogonalLoop=1;jettySize=auto;html=1;exitX=1;exitY=0.5;exitDx=0;exitDy=0;entryX=0.5;entryY=0;entryDx=0;entryDy=0;" edge="1" parent="1" source="cLG7nZlnw9pA9-EBMMAk-3" target="cLG7nZlnw9pA9-EBMMAk-14">
          <mxGeometry relative="1" as="geometry" />
        </mxCell>
        <mxCell id="cLG7nZlnw9pA9-EBMMAk-22" style="edgeStyle=orthogonalEdgeStyle;rounded=0;orthogonalLoop=1;jettySize=auto;html=1;exitX=1;exitY=0.25;exitDx=0;exitDy=0;entryX=0.5;entryY=0;entryDx=0;entryDy=0;" edge="1" parent="1" source="cLG7nZlnw9pA9-EBMMAk-3" target="cLG7nZlnw9pA9-EBMMAk-15">
          <mxGeometry relative="1" as="geometry" />
        </mxCell>
        <mxCell id="cLG7nZlnw9pA9-EBMMAk-3" value="imageprocessing.py" style="rounded=1;whiteSpace=wrap;html=1;" vertex="1" parent="1">
          <mxGeometry x="354.5" y="170" width="120" height="60" as="geometry" />
        </mxCell>
        <mxCell id="cLG7nZlnw9pA9-EBMMAk-5" value="1. Basic Color Transformations" style="rounded=1;whiteSpace=wrap;html=1;" vertex="1" parent="1">
          <mxGeometry x="-70" y="270" width="120" height="60" as="geometry" />
        </mxCell>
        <mxCell id="cLG7nZlnw9pA9-EBMMAk-6" value="2. Geometric Transformations" style="rounded=1;whiteSpace=wrap;html=1;" vertex="1" parent="1">
          <mxGeometry x="80" y="270" width="120" height="60" as="geometry" />
        </mxCell>
        <mxCell id="cLG7nZlnw9pA9-EBMMAk-7" value="3. Filtering and Smoothing Operations" style="rounded=1;whiteSpace=wrap;html=1;" vertex="1" parent="1">
          <mxGeometry x="230" y="270" width="120" height="60" as="geometry" />
        </mxCell>
        <mxCell id="cLG7nZlnw9pA9-EBMMAk-12" value="4. Edge Detection" style="rounded=1;whiteSpace=wrap;html=1;" vertex="1" parent="1">
          <mxGeometry x="380" y="270" width="120" height="60" as="geometry" />
        </mxCell>
        <mxCell id="cLG7nZlnw9pA9-EBMMAk-13" value="5. Thresholding" style="rounded=1;whiteSpace=wrap;html=1;" vertex="1" parent="1">
          <mxGeometry x="530" y="270" width="120" height="60" as="geometry" />
        </mxCell>
        <mxCell id="cLG7nZlnw9pA9-EBMMAk-14" value="6. Histogram and Equalization Operations" style="rounded=1;whiteSpace=wrap;html=1;" vertex="1" parent="1">
          <mxGeometry x="681" y="270" width="120" height="60" as="geometry" />
        </mxCell>
        <mxCell id="cLG7nZlnw9pA9-EBMMAk-15" value="7. Contours and drawing" style="rounded=1;whiteSpace=wrap;html=1;" vertex="1" parent="1">
          <mxGeometry x="830" y="270" width="120" height="60" as="geometry" />
        </mxCell>
      </root>
    </mxGraphModel>
  </diagram>
</mxfile>
